<?xml version="1.0" encoding="UTF-8"?>
<svg version="1.1" xmlns="http://www.w3.org/2000/svg" width="1300" height="1300">
<path d="M0 0 C4.43341985 0.5136761 6.61191944 2.02185233 9.9375 4.9375 C14.06911152 8.43942741 18.25569495 11.70111289 22.6875 14.8125 C27.75029473 18.37883715 32.74344005 22.02065764 37.6875 25.75 C43.596843 30.20564607 49.53618613 34.61751409 55.5 39 C62.19517995 43.9210351 68.85869359 48.88139715 75.49731445 53.87841797 C79.20213227 56.66348041 82.92861993 59.41296532 86.6875 62.125 C90.68196404 65.01155422 94.60333337 67.98337283 98.5 71 C104.25053436 75.45093558 110.0964251 79.75356893 116 84 C122.46692095 88.6516449 128.84349066 93.39473712 135.14160156 98.27099609 C141.29610355 103.024069 147.52855732 107.68570488 154 112 C154.08636719 111.07960938 154.17273438 110.15921875 154.26171875 109.2109375 C156.0982994 92.66486232 161.48684111 76.60438199 174 65 C186.69050551 54.94337299 199.22735946 51.39229906 215.20800781 52.64355469 C224.42621571 53.82041579 233.2371321 57.02976618 242 60 C244.14190628 60.7057923 246.28383356 61.41152087 248.42578125 62.1171875 C280.05823589 72.69146519 310.68451995 86.15069703 341 100 C341.95890137 100.43699219 342.91780273 100.87398438 343.90576172 101.32421875 C376.58807139 116.22296997 376.58807139 116.22296997 391.28588867 123.65356445 C396.7496718 126.40417885 402.26091318 129.04967897 407.78027344 131.68676758 C418.3365763 136.73216669 428.80201061 141.88099732 439.1171875 147.40234375 C442.79160819 149.3686429 446.48793641 151.28796995 450.1953125 153.19140625 C460.59679204 158.53640579 470.89762311 163.89395155 480.81640625 170.09765625 C483.16111339 171.49872665 485.44412054 172.74847823 487.88671875 173.94921875 C492.12462765 176.03344455 496.20240613 178.31836566 500.25 180.75 C500.94351563 181.141875 501.63703125 181.53375 502.3515625 181.9375 C508.7539683 185.81328588 510.87860858 190.38058367 513.046875 197.37890625 C515.48198555 208.40454567 515.80712203 217.06559917 510.25 227.1875 C497.28371178 243.39536027 478.78607537 248.02914545 458.87109375 250.5625 C434.86644192 253.07060026 410.44320044 250.29726164 387 245 C398.43358339 249.92299514 409.92047568 253.07558379 422.125 255.375 C422.79435577 255.50183167 423.46371155 255.62866333 424.15335083 255.75933838 C458.1838102 262.14353362 497.87931895 262.44694972 527.6015625 242.23046875 C537.91366562 234.58206598 543.66811405 224.93351274 548 213 C552.71844946 215.47319694 557.22907455 218.08273677 561.5625 221.1875 C567.78301468 225.62799048 574.2806493 229.59250705 580.77441406 233.61572266 C584.632945 236.01566456 588.47231876 238.44584375 592.3125 240.875 C593.10132568 241.37370605 593.89015137 241.87241211 594.70288086 242.38623047 C596.31582311 243.40597984 597.92869697 244.42583741 599.54150391 245.44580078 C602.87244279 247.55153633 606.20495678 249.65477195 609.53759766 251.7578125 C611.95437733 253.2836952 614.36979968 254.81170973 616.78515625 256.33984375 C619.16182603 257.84268414 621.54277148 259.33607022 623.93359375 260.81640625 C630.1367834 264.67767406 636.13315311 268.82126687 642.125 273 C643.3788147 273.87277588 643.3788147 273.87277588 644.65795898 274.76318359 C650.23981262 278.68044775 655.64435326 282.78032032 661 287 C662.46953125 288.12148438 662.46953125 288.12148438 663.96875 289.265625 C671.56404824 295.21996374 681.57851616 303.35166215 683.44140625 313.375 C683.88743934 323.04384632 679.82962758 329.73032205 673.484375 336.8046875 C671.04261181 339.26838269 668.54270416 341.64125354 666 344 C664.33204484 345.66537718 662.6653507 347.33201841 661 349 C654.55967917 355.2098979 647.71644707 360.53779176 640.39453125 365.640625 C639.84458496 366.03958984 639.29463867 366.43855469 638.72802734 366.84960938 C637 368 637 368 635.02587891 368.91601562 C632.77973697 370.08298975 631.50748914 370.95036545 630 373 C629.1884251 377.68734759 629.48358218 382.26632625 629.75 387 C630.83306649 410.90130828 622.65699672 430.56334089 607.4375 448.75 C598.46233404 458.19974706 586.64423123 464.92123619 574 468 C573.2059375 468.19335938 572.411875 468.38671875 571.59375 468.5859375 C568.42597428 469.09163664 565.39387466 469.09488762 562.1875 469.0625 C561.02605469 469.05347656 559.86460937 469.04445313 558.66796875 469.03515625 C557.78753906 469.02355469 556.90710937 469.01195312 556 469 C557.21939376 465.34181871 558.50346563 464.6447568 561.5625 462.375 C574.53465489 452.21163078 583.8042697 438.53598658 586 422 C586.16200647 418.89463706 586.18504219 415.79663591 586.1875 412.6875 C586.19974609 411.88376953 586.21199219 411.08003906 586.22460938 410.25195312 C586.2423741 402.89143665 585.80978168 394.91978017 581 389 C577.88671931 388.26327358 577.88671931 388.26327358 574.25390625 388.3984375 C573.57963593 388.39170013 572.9053656 388.38496277 572.21066284 388.37802124 C570.75531654 388.3646801 569.29984569 388.3617358 567.8444519 388.36804199 C563.97093283 388.37985292 560.0992371 388.30079923 556.2265625 388.2265625 C555.44343185 388.21294678 554.66030121 388.19933105 553.85343933 388.18530273 C525.18810711 387.60422983 491.31324654 383.8365978 465.69921875 369.94140625 C463.03859716 368.73135536 463.03859716 368.73135536 460.40625 369.68359375 C458.16808769 370.90804294 455.97437158 372.14538466 453.8125 373.5 C441.93757192 380.69112214 429.96469996 387.20579991 417.25 392.8125 C416.24573975 393.2561792 415.24147949 393.6998584 414.20678711 394.15698242 C401.66669043 399.58460291 388.837147 403.77968423 375.7043457 407.48486328 C373.43460112 408.12581862 371.16741217 408.77526801 368.90039062 409.42578125 C353.92451889 413.70070154 339.03881524 416.80367158 323.625 419 C322.72589905 419.12973206 321.8267981 419.25946411 320.90045166 419.39312744 C301.33436868 422.19222237 281.72023079 423.78049855 262 425 C265.01553495 425.321179 268.03117204 425.64134308 271.046875 425.9609375 C272.3150708 426.09616821 272.3150708 426.09616821 273.60888672 426.23413086 C316.58024869 430.7803764 360.35168185 428.05648669 400.83984375 412.234375 C402.87442652 411.4396554 404.92780414 410.69073195 407 410 C405.60759286 414.06787008 403.70721477 416.8521448 400.9375 420.125 C400.12925781 421.08792969 399.32101562 422.05085938 398.48828125 423.04296875 C397.66714844 424.01878906 396.84601562 424.99460937 396 426 C394.54013479 427.81126639 393.08177609 429.62374815 391.625 431.4375 C378.05173149 447.96248958 362.88614095 463.85666349 346 477 C344.63666438 478.17696202 343.28203726 479.36410809 341.9375 480.5625 C334.58567926 487.05910894 326.75937717 493.00241378 319 499 C321.5943941 500.35096127 324.13921751 501.45433906 326.9140625 502.375 C338.72429101 506.42306461 349.30674847 511.57972749 360 518 C361.05058594 518.62003906 362.10117187 519.24007812 363.18359375 519.87890625 C369.94471276 524.01229958 375.98184194 528.8587208 382 534 C382.67546875 534.56332031 383.3509375 535.12664063 384.046875 535.70703125 C400.66298032 549.81698846 422.74974516 571.56377481 426 594 C459.13904625 590.65727881 483.74152707 568.87430526 508 548 C504.21717426 570.37155005 486.54041 592.0962064 470.52734375 607.46875 C468.97430434 609.02576138 467.62551881 610.6604723 466.25 612.375 C462.12519035 617.27869657 457.00923102 621.04676903 452 625 C450.16649791 626.47895748 448.33315472 627.95811198 446.5 629.4375 C444.04011269 631.41419516 441.62850253 633.24766498 439 635 C438.61513405 637.68155878 438.61513405 637.68155878 438.77734375 640.828125 C438.79780762 642.01374023 438.81827148 643.19935547 438.83935547 644.42089844 C438.87174316 645.68450195 438.90413086 646.94810547 438.9375 648.25 C439.19815004 671.5444992 435.8349883 691.20944194 419.3984375 708.78125 C405.96599335 721.63304094 389.30889632 727.85188938 371 730 C370.87995605 729.26587891 370.75991211 728.53175781 370.63623047 727.77539062 C366.67601989 703.9768721 361.7794262 681.58686924 344 664 C343.47148438 663.43796875 342.94296875 662.8759375 342.3984375 662.296875 C330.59413464 650.79524657 312.26944359 647.4220052 296.5 647.5625 C294.65643921 647.57603516 294.65643921 647.57603516 292.77563477 647.58984375 C282.07546499 647.79098264 272.31156344 649.248717 262 652 C260.5754248 652.35481445 260.5754248 652.35481445 259.12207031 652.71679688 C229.7032922 660.11620795 201.39708327 673.20748268 175 688 C174.22769043 688.43022461 173.45538086 688.86044922 172.65966797 689.30371094 C167.05200598 692.44553308 161.51618387 695.70065513 156 699 C154.90929199 699.65194336 153.81858398 700.30388672 152.69482422 700.97558594 C139.26081116 709.01924148 125.91812966 717.14325201 113 726 C111.00198279 727.33630274 109.00202403 728.66970772 107 730 C106.04351563 730.63808594 105.08703125 731.27617188 104.1015625 731.93359375 C101.8270557 733.44897674 99.55098039 734.96185126 97.2734375 736.47265625 C89.02933667 741.94591821 80.84127485 747.47526466 72.83984375 753.30078125 C39.83019903 777.2901838 39.83019903 777.2901838 27.8828125 776.4765625 C26 776 26 776 23.4375 774 C21.08638049 769.09331581 21.4501053 764.19265169 23.06640625 759.10546875 C23.54757503 757.7929197 24.04690173 756.48691018 24.5625 755.1875 C24.8320752 754.49027832 25.10165039 753.79305664 25.37939453 753.07470703 C27.45435676 747.91170577 30.03648282 743.34770545 33.1640625 738.73828125 C36.34137415 733.99935473 39.07285303 729.00220944 41.85498047 724.02539062 C43.07120034 721.87405586 44.31796163 719.74215387 45.56640625 717.609375 C61.5011085 690.02589546 76.39752308 655.9867071 67.90527344 623.66162109 C63.65745397 609.38284898 53.46520809 599.6682341 40.9921875 592.21484375 C34.54021629 589.59530975 28.69943156 591.40360889 22.375 593.4140625 C21.15086143 593.78945915 21.15086143 593.78945915 19.9019928 594.17243958 C18.1633238 594.70628152 16.42592554 595.24427719 14.68972778 595.78610229 C10.17324798 597.19474467 5.64716602 598.5717674 1.12109375 599.94921875 C0.23538193 600.21938309 -0.6503299 600.48954742 -1.56288147 600.76789856 C-9.1999009 603.0862675 -16.88156327 605.17087318 -24.62329102 607.11035156 C-30.96148445 608.70108544 -37.21829253 610.48826747 -43.42749023 612.52905273 C-52.33465247 615.31391371 -59.67577945 613.94038446 -68 610 C-70.36666638 608.47824714 -72.01825972 607.03530083 -74 605 C-74 604.34 -74 603.68 -74 603 C-74.66 603 -75.32 603 -76 603 C-81.02963826 595.20406069 -82.29861691 588.19589698 -81 579 C-78.86988684 572.10293756 -74.86132466 566.22554727 -69 562 C-59.65982991 557.67327838 -49.61816174 554.96686606 -39.75 552.125 C-38.24647855 551.68752997 -36.74306198 551.24969935 -35.23974609 550.81152344 C-25.36844781 547.94131781 -15.47576106 545.14934012 -5.56933594 542.40283203 C1.45522442 540.45079477 8.43896377 538.38583558 15.41455078 536.26635742 C23.05592901 533.95654597 30.74157028 531.81549485 38.43261719 529.67797852 C46.71687284 527.37123526 54.97949195 524.99685773 63.22558594 522.55712891 C68.09880584 521.11874564 72.9758652 519.72758352 77.890625 518.4375 C79.30746582 518.05766968 79.30746582 518.05766968 80.75292969 517.67016602 C82.51532384 517.20012115 84.28142387 516.74363929 86.05175781 516.30444336 C92.5063943 514.56299547 98.50114348 511.68747987 102.35449219 506.0012207 C107.31376147 496.88352109 108.67653296 485.90169222 106.5234375 475.75390625 C104.280636 470.6679574 99.32346469 468.29927829 94.4609375 466.109375 C83.06651075 462.45698539 72.41990526 465.63398365 61.50097656 469.20849609 C56.70476274 470.72639196 51.84807135 472.03422686 47 473.375 C44.82415472 473.98284377 42.64837402 474.59091872 40.47265625 475.19921875 C36.39923595 476.33459307 32.32376351 477.4620238 28.24609375 478.58203125 C18.5310469 481.26170321 8.84896314 484.02807981 -0.80078125 486.93359375 C-2.10206718 487.32538063 -2.10206718 487.32538063 -3.42964172 487.7250824 C-7.74742904 489.02682034 -12.06339438 490.33429018 -16.37719727 491.64916992 C-25.27882931 494.35200106 -34.19987059 496.88390984 -43.20672607 499.21282959 C-50.40601135 501.08203539 -57.51331935 503.19452037 -64.625 505.375 C-67.22430618 506.16463007 -69.8247855 506.95032955 -72.42578125 507.734375 C-73.06748764 507.92782501 -73.70919403 508.12127502 -74.37034607 508.32058716 C-85.48127965 511.65804989 -96.67456786 514.71405797 -107.86132812 517.78564453 C-118.54340989 520.7204639 -129.19334968 523.73972259 -139.80078125 526.93359375 C-141.10206718 527.32538063 -141.10206718 527.32538063 -142.42964172 527.7250824 C-146.74742904 529.02682034 -151.06339438 530.33429018 -155.37719727 531.64916992 C-164.31937833 534.36430703 -173.28132831 536.91040385 -182.32949829 539.2492218 C-189.87874198 541.2062993 -197.33512291 543.43854018 -204.78125 545.75585938 C-214.54880646 548.69517035 -221.76983674 548.60860887 -231 544 C-238.37005832 538.92957936 -242.18632374 533.44102879 -245 525 C-245.86761931 516.32380695 -244.5145849 509.88910078 -239.421875 502.8046875 C-231.70169034 493.38049812 -221.87811323 491.27116762 -210.515625 488.17578125 C-202.50807557 485.86023412 -196.89419276 483.43213824 -192.2578125 476.33203125 C-191.88398438 475.50058594 -191.51015625 474.66914062 -191.125 473.8125 C-190.73570312 472.97332031 -190.34640625 472.13414062 -189.9453125 471.26953125 C-187.09366204 464.42321342 -186.79815006 457.1456287 -189.5625 450.1875 C-192.77167897 443.84852104 -198.3693166 439.42274971 -205 437 C-213.22041897 435.43688933 -219.73119743 436.52046728 -227.625 439 C-229.82925076 439.6555411 -232.03368322 440.31047147 -234.23828125 440.96484375 C-235.3567041 441.30370605 -236.47512695 441.64256836 -237.62744141 441.99169922 C-242.99962265 443.5978313 -248.40719757 445.07256616 -253.8125 446.5625 C-262.19126708 448.89571236 -270.52738735 451.34421226 -278.84741211 453.87792969 C-284.90816376 455.70910473 -291.00402355 457.33694226 -297.14282227 458.8840332 C-302.27136636 460.20450639 -307.3246142 461.70893356 -312.37109375 463.3125 C-313.69345514 463.72767114 -315.01588411 464.14262706 -316.33837891 464.55737305 C-318.92301482 465.36853689 -321.49540238 466.20354529 -324.06787109 467.05395508 C-333.09616972 469.89023647 -343.61616482 472.30434916 -352.875 468.9375 C-360.26370591 464.35650233 -367.20724842 458.44895732 -370 450 C-370.99648447 440.82185355 -370.70299666 432.6132237 -365 425 C-357.60590781 416.67360923 -348.09218974 413.78475468 -337.5625 411.25 C-328.8670947 409.07472832 -320.30134869 406.62289152 -311.75 403.9375 C-304.36905467 401.62322277 -296.99939159 399.39766221 -289.5 397.5 C-281.91823406 395.58141313 -274.46416211 393.3329541 -267 391 C-258.88820127 388.46579196 -250.78070463 386.08885533 -242.54296875 384.00390625 C-234.9636944 382.05458357 -227.48655889 379.7740388 -220 377.5 C-211.78474367 375.00461968 -203.57517121 372.54457873 -195.25 370.4375 C-186.60544243 368.24939452 -178.1218859 365.60086618 -169.61230469 362.94116211 C-162.53800633 360.74327654 -155.44878653 358.75113726 -148.26831055 356.93579102 C-140.23954858 354.87183972 -132.35314999 352.36410979 -124.44628906 349.87988281 C-117.07647117 347.58242695 -109.71941208 345.59935018 -102.171875 343.984375 C-96.48059404 342.21811539 -92.35024547 339.0829117 -89.1015625 334.16796875 C-85.03556858 326.16574667 -84.05425947 316.84004685 -85 308 C-86.64149294 302.98432712 -89.53781548 299.75950885 -94 297 C-104.71192595 291.68654467 -116.11601097 293.7902901 -127.125 297 C-128.24173096 297.31251709 -129.35846191 297.62503418 -130.5090332 297.94702148 C-139.53782044 300.50147988 -148.49802755 303.27866077 -157.45092773 306.08569336 C-165.42067483 308.56793563 -173.43735236 310.73360573 -181.52807617 312.78149414 C-188.24951231 314.4988527 -194.87641784 316.43896838 -201.5 318.5 C-210.03489801 321.15358001 -218.60573824 323.52295551 -227.26953125 325.71728516 C-235.59341812 327.84244189 -243.81950121 330.26077751 -252.02124023 332.81640625 C-261.69613799 335.74312697 -268.86212363 335.53689795 -278 331 C-285.95429866 325.74556222 -289.33704967 319.80297861 -291.55859375 310.71484375 C-292.72728806 303.88340383 -291.40056371 297.43528944 -287.4140625 291.73046875 C-282.3685201 285.79259243 -276.78515994 281.72518585 -270 278 C-280.85213458 266.13836453 -293.53982909 258.59323855 -308 252 C-309.19238281 251.4534375 -310.38476562 250.906875 -311.61328125 250.34375 C-337.67815831 239.17715786 -369.7257819 234.42476251 -397.8125 238 C-417.92499522 240.55625359 -417.92499522 240.55625359 -427 233.75 C-429 231 -429 231 -429.5625 227.5625 C-428.68938356 222.03276257 -426.25790475 218.74634548 -421.80859375 215.49609375 C-418.29369704 213.05735284 -414.69282762 211.47691909 -410.625 210.1875 C-409.87371826 209.94378662 -409.12243652 209.70007324 -408.34838867 209.44897461 C-388.31145748 203.19897618 -367.5162956 199.0730349 -347.04321289 194.50634766 C-338.2721089 192.54173718 -329.55367931 190.4175577 -320.84448242 188.1965332 C-312.38639303 186.05626081 -303.87914857 184.18099673 -295.35546875 182.32226562 C-287.11364251 180.50906385 -278.92872373 178.5156957 -270.75 176.4375 C-262.54691029 174.35432702 -254.3442564 172.36983674 -246.0625 170.625 C-235.18208923 168.32982199 -224.39567837 165.68833745 -213.59857178 163.03482056 C-202.65188212 160.3468597 -191.68992667 157.7622375 -180.6875 155.3125 C-170.79135078 153.10904095 -160.94662274 150.77054596 -151.12255859 148.26660156 C-143.04988729 146.22517441 -134.93897566 144.37619634 -126.8125 142.5625 C-116.66521902 140.29724639 -106.54025606 137.95804124 -96.4375 135.5 C-86.91029697 133.18382847 -77.37934909 130.88666755 -67.83377075 128.64746094 C-65.94138252 128.20308802 -64.0496579 127.75589201 -62.15795898 127.30859375 C-55.135204 125.66609324 -48.11105194 124.20629069 -41 123 C-40.75507812 123.87398438 -40.51015625 124.74796875 -40.2578125 125.6484375 C-30.29014943 158.43861186 -5.02197029 185.24304307 23 204 C23.55768066 204.37721191 24.11536133 204.75442383 24.68994141 205.14306641 C28.73214802 207.86421337 32.83779238 210.46652937 37 213 C37.63260742 213.38623535 38.26521484 213.7724707 38.91699219 214.17041016 C52.92821046 222.60545359 67.91838195 228.77589133 83 235 C82.4848584 234.61763184 81.9697168 234.23526367 81.43896484 233.84130859 C77.42792712 230.85095751 73.48011476 227.81584883 69.625 224.625 C66.99660483 222.45262421 64.3735514 220.28768472 61.671875 218.20703125 C40.06068758 201.55759604 21.06871798 181.01049926 8 157 C7.42137207 155.93700684 7.42137207 155.93700684 6.83105469 154.85253906 C0.03436778 142.09542151 -4.0455582 129.12223179 -7 115 C-7.17789062 114.16339844 -7.35578125 113.32679688 -7.5390625 112.46484375 C-14.59600934 77.57216217 -11.25200822 33.75602466 0 0 Z M-57.75 388.9375 C-58.86689209 389.24816406 -59.98378418 389.55882812 -61.13452148 389.87890625 C-71.07796768 392.6710133 -80.96810262 395.64795067 -90.84960938 398.65087891 C-100.1115083 401.46141103 -109.40776985 404.11588523 -118.75805664 406.6171875 C-131.2414258 409.908755 -131.2414258 409.908755 -141.9375 416.8125 C-142.64777344 417.43769531 -143.35804688 418.06289063 -144.08984375 418.70703125 C-149.42498307 425.1113805 -149.68386446 432.06141484 -149.41015625 440.046875 C-148.56635722 448.17949046 -144.78123428 454.12312049 -138.8203125 459.59375 C-133.83110555 463.44807296 -129.29090829 464.30406334 -123 464 C-119.71562021 463.28912587 -119.71562021 463.28912587 -116.421875 462.20703125 C-115.18888672 461.82675781 -113.95589844 461.44648437 -112.68554688 461.0546875 C-112.04351318 460.85198242 -111.40147949 460.64927734 -110.73999023 460.44042969 C-107.35896011 459.37356556 -103.96814205 458.33866101 -100.578125 457.30078125 C-99.91176025 457.09595123 -99.24539551 456.89112122 -98.55883789 456.68008423 C-93.56918894 455.15326719 -88.55991658 453.77091666 -83.5 452.5 C-73.88802128 450.06611709 -64.41531642 447.17608877 -54.9296875 444.296875 C-53.71925781 443.92949219 -52.50882813 443.56210937 -51.26171875 443.18359375 C-50.06788574 442.82096436 -48.87405273 442.45833496 -47.64404297 442.0847168 C-42.77558778 440.63553105 -37.88418006 439.27667402 -32.9855957 437.93261719 C-25.60782576 435.62800674 -21.21144422 431.98108538 -17.1875 425.3984375 C-13.784941 418.52616373 -12.74137666 410.51288407 -15 403.125 C-17.58270498 396.97911872 -21.7661998 391.80030966 -27.6171875 388.54296875 C-38.05825605 384.3576679 -47.20464851 385.90563998 -57.75 388.9375 Z " fill="#07B326" transform="translate(617,262)"/>
<path d="M0 0 C0.78117188 0.165 1.56234375 0.33 2.3671875 0.5 C9.04033141 2.29747984 13.27799064 6.05809346 17.16796875 11.69140625 C20.34464309 20.50555898 18.57884888 33.01258913 15.28125 41.50390625 C13.37578231 45.21608263 11.00656989 48.1308733 8 51 C7.01 51.99 7.01 51.99 6 53 C4.74216976 53.61086678 3.46931007 54.19119943 2.1875 54.75 C-4.76792237 58.19626714 -7.6707512 63.41024411 -10.2734375 70.48828125 C-12.2328669 77.26200763 -11.0843064 83.73295188 -8 90 C-4.12313425 95.7947861 0.35284617 99.81644458 7 102 C15.19604961 103.61980215 21.75270356 102.4727774 29.625 100 C31.82925076 99.3444589 34.03368322 98.68952853 36.23828125 98.03515625 C37.3567041 97.69629395 38.47512695 97.35743164 39.62744141 97.00830078 C44.99962646 95.40216756 50.40723213 93.9275692 55.8125 92.4375 C64.04318876 90.14363896 72.23720119 87.75082704 80.41235352 85.26708984 C88.05352117 82.95712895 95.73851744 80.81409269 103.43041992 78.68017578 C109.73141885 76.92810369 116.01426682 75.12538268 122.28540039 73.26928711 C127.18344643 71.82227182 132.08952177 70.40419497 137 69 C137.928125 68.73348633 138.85625 68.46697266 139.8125 68.19238281 C152.23498668 64.67650146 162.83902859 61.79002674 174.99609375 67.8359375 C180.29661829 70.91499464 183.69102164 74.16679152 186 80 C188.41670316 90.06384246 187.9874989 99.37243184 182.828125 108.4375 C175.39076823 118.86251291 162.33689655 121.2904227 150.64453125 124.44921875 C142.29382748 126.71884987 133.99774427 129.183988 125.69262695 131.61401367 C118.89542098 133.59720776 112.08908638 135.5333808 105.26171875 137.41015625 C96.41662748 139.84776485 87.63941447 142.49186099 78.86236572 145.16247559 C66.2911886 148.98344902 53.73089221 152.71955854 40.98266602 155.91162109 C32.69576156 158.01100116 24.56238251 160.55419375 16.40673828 163.11035156 C10.13772398 165.0653768 3.86583216 166.88917611 -2.5 168.5 C-10.08177197 170.41858839 -17.53580458 172.66713615 -25 175 C-33.31166793 177.59563044 -41.62319358 180.05484949 -50.06347656 182.19604492 C-54.26470082 183.26547229 -58.43290954 184.40506086 -62.58984375 185.63671875 C-63.53303467 185.91499512 -64.47622559 186.19327148 -65.44799805 186.47998047 C-67.2630341 187.01925667 -69.07587726 187.56599238 -70.88598633 188.12158203 C-79.18728805 190.5798484 -86.08563282 190.73219322 -94 187 C-101.22548349 182.55173818 -106.46358501 177.4069989 -108.8125 169.140625 C-110.67817355 159.95218277 -109.96147301 153.61262094 -104.8125 145.75 C-98.05687034 136.0674582 -88.49159452 134.0268064 -77.68457031 131.02319336 C-68.0658907 128.32357662 -58.92097602 125.65931986 -53.0625 117.0625 C-49.04829156 109.70080287 -48.25314781 103.17113098 -50 95 C-52.89098812 87.03732152 -58.14825683 82.54716517 -65.5 78.6875 C-72.00172052 76.89952686 -76.86970223 76.83842975 -83.375 78.625 C-84.06142578 78.80957764 -84.74785156 78.99415527 -85.45507812 79.18432617 C-87.64071667 79.77589975 -89.82009966 80.38766298 -92 81 C-93.39808527 81.38020387 -94.79652216 81.75911716 -96.1953125 82.13671875 C-102.8483898 83.94849426 -109.47066628 85.82434096 -116.0546875 87.875 C-117.10205078 88.19557373 -118.14941406 88.51614746 -119.22851562 88.84643555 C-121.26544634 89.47183397 -123.29837385 90.1104882 -125.32617188 90.76489258 C-134.52934734 93.57117568 -144.06522305 94.88301117 -152.90234375 90.328125 C-159.67310209 86.0412389 -165.15694606 80.96209396 -167.58203125 73.1171875 C-169.25240615 64.65603614 -168.32643656 56.10977616 -163.59375 48.83984375 C-156.20525582 39.51709755 -144.93582652 36.79402135 -133.9375 33.625 C-132.60999394 33.2352823 -131.28268561 32.84489046 -129.95556641 32.45385742 C-120.58969777 29.70502168 -111.19383317 27.06065557 -101.78637695 24.45800781 C-95.37203926 22.68088427 -88.99157919 20.81584806 -82.625 18.875 C-75.74064635 16.77816666 -68.8300313 14.88693095 -61.85717773 13.109375 C-56.74607685 11.78243953 -51.68182681 10.32565526 -46.62890625 8.79296875 C-45.9770636 8.59541489 -45.32522095 8.39786102 -44.65362549 8.19432068 C-41.41009493 7.20887354 -38.16979251 6.21435653 -34.93212891 5.2097168 C-10.4861741 -2.27496658 -10.4861741 -2.27496658 0 0 Z " fill="#07B326" transform="translate(319,780)"/>
<path d="M0 0 C5.81277376 4.71808944 9.40505674 10.48860771 11.76171875 17.55859375 C12.65926427 27.35802519 11.09429497 34.51100198 5.07421875 42.30859375 C-2.68656333 50.44572437 -13.5733216 52.65157386 -24.05078125 55.49609375 C-25.63691925 55.935948 -27.22269242 56.3771199 -28.80810547 56.81958008 C-31.15764471 57.47518638 -33.50734079 58.13010227 -35.85827637 58.78068542 C-41.55148429 60.35682287 -47.21507943 62.01524154 -52.86328125 63.74609375 C-61.18894735 66.28146346 -69.56391848 68.6234121 -77.95019531 70.94946289 C-84.53044108 72.78096801 -91.07994698 74.69165273 -97.61328125 76.68359375 C-104.79665834 78.87127491 -112.01082926 80.86605016 -119.28637695 82.72387695 C-123.93810163 83.92000693 -128.52298144 85.24727834 -133.10473633 86.6875 C-142.72111659 89.68092576 -150.71921352 91.59337167 -160.07421875 86.8828125 C-163.92346822 84.52740533 -167.12334089 81.81573791 -170.23828125 78.55859375 C-170.769375 78.03136719 -171.30046875 77.50414062 -171.84765625 76.9609375 C-176.86298788 70.77630103 -176.27600737 62.18779533 -175.57226562 54.64355469 C-174.40855676 47.37888095 -169.68179443 42.58957723 -164.29469299 38.02243042 C-160.82814344 35.55480089 -157.08959635 34.4757756 -153.03515625 33.3046875 C-151.71925507 32.9023867 -151.71925507 32.9023867 -150.37677002 32.49195862 C-147.58530311 31.64341735 -144.78715763 30.81981983 -141.98828125 29.99609375 C-140.1570843 29.44099393 -138.32635039 28.88436421 -136.49609375 28.32617188 C-126.9853655 25.44633764 -117.43537831 22.77807296 -107.81463623 20.292099 C-101.22322043 18.58104617 -94.72798364 16.62203686 -88.23828125 14.55859375 C-80.13752451 12.02342671 -72.03905301 9.64819652 -63.80981445 7.57128906 C-54.61059941 5.20984614 -45.54242109 2.38176179 -36.46582031 -0.40795898 C-35.22928711 -0.78509033 -33.99275391 -1.16222168 -32.71875 -1.55078125 C-31.61426514 -1.89077148 -30.50978027 -2.23076172 -29.37182617 -2.58105469 C-19.35933684 -5.33010123 -9.02902635 -5.81450388 0 0 Z " fill="#07B326" transform="translate(205.23828125,705.44140625)"/>
<path d="M0 0 C6.03506935 3.85870585 10.35108424 10.05428058 12.453125 16.87890625 C13.98081421 24.8992746 12.59809912 32.62452794 8.640625 39.71875 C-0.11935823 52.03747641 -16.80099728 54.6067246 -30.49755859 58.20703125 C-38.56049445 60.32831741 -46.56156967 62.6075629 -54.546875 65.00390625 C-64.53242345 67.99761269 -74.54270294 70.87895055 -84.59008789 73.65820312 C-85.5464917 73.92310547 -86.50289551 74.18800781 -87.48828125 74.4609375 C-88.8662085 74.84197632 -88.8662085 74.84197632 -90.27197266 75.23071289 C-92.9812123 76.00300469 -95.66670681 76.83532486 -98.35546875 77.67578125 C-106.57484379 80.15243985 -113.84676801 79.83790912 -121.69921875 76.25390625 C-129.67388048 71.89169812 -134.02480865 65.65644679 -136.59765625 56.921875 C-138.28755563 48.54065687 -136.05766305 40.77307605 -131.4765625 33.6640625 C-123.85214933 24.14241163 -111.07998847 22.0068038 -99.859375 18.62890625 C-99.0575882 18.38546478 -98.25580139 18.14202332 -97.42971802 17.89120483 C-87.09259331 14.75337206 -76.7374821 11.77836646 -66.25805664 9.14770508 C-57.58412184 6.95643694 -49.02666075 4.40324616 -40.46655273 1.8059082 C-12.95182845 -6.50140995 -12.95182845 -6.50140995 0 0 Z " fill="#07B326" transform="translate(282.984375,568.99609375)"/>
<path d="M0 0 C7.40667079 3.8509321 12.95500199 8.95126714 16.40234375 16.62890625 C18.72405925 24.32159493 18.25787981 32.32099869 14.5 39.4453125 C9.70122829 47.09335492 3.9247439 51.48451938 -4.859375 54.0546875 C-12.22300963 55.54567137 -19.51665818 53.80492635 -25.9921875 50.18359375 C-33.04129451 45.30241965 -37.09514248 38.86222917 -38.75 30.4375 C-39.57158411 22.22165892 -37.22644217 14.27988716 -32.25 7.625 C-23.74492311 -1.22198952 -11.47839281 -4.50866544 0 0 Z " fill="#07B326" transform="translate(103.75,843.5625)"/>
</svg>
